HIERARCHY
ROOT joint_Root
{
	OFFSET 0.0 0.0 0.0
	CHANNELS 6 Xposition Yposition Zposition Zrotation Xrotation Yrotation 
	JOINT Hips
	{
		OFFSET -0.726466 93.3139 -2.00062
		CHANNELS 6 Xposition Yposition Zposition Zrotation Xrotation Yrotation 
		JOINT Spine
		{
			OFFSET 15.7357 0.0 0.0
			CHANNELS 6 Xposition Yposition Zposition Zrotation Xrotation Yrotation 
			JOINT Chest
			{
				OFFSET 8.98455 -0.406207 0.0
				CHANNELS 6 Xposition Yposition Zposition Zrotation Xrotation Yrotation 
				JOINT Neck
				{
					OFFSET 16.3773 0.0 0.0
					CHANNELS 6 Xposition Yposition Zposition Zrotation Xrotation Yrotation 
					JOINT Head
					{
						OFFSET 6.45672 0.0 0.0
						CHANNELS 6 Xposition Yposition Zposition Zrotation Xrotation Yrotation 
						End Site
						{
							OFFSET 0.0 0.0 0.0
						}
					}
				}
				JOINT Shoulder_L
				{
					OFFSET 12.9942 -0.242716 4.98039
					CHANNELS 6 Xposition Yposition Zposition Zrotation Xrotation Yrotation 
					JOINT UpperArm_L
					{
						OFFSET 5.34809 0.0 0.0
						CHANNELS 6 Xposition Yposition Zposition Zrotation Xrotation Yrotation 
						JOINT LowerArm_L
						{
							OFFSET 24.3286 1.87007e-05 0.0
							CHANNELS 6 Xposition Yposition Zposition Zrotation Xrotation Yrotation 
							JOINT Hand_L
							{
								OFFSET 22.2916 0.0 0.0
								CHANNELS 6 Xposition Yposition Zposition Zrotation Xrotation Yrotation 
								End Site
								{
									OFFSET 0.0 0.0 0.0
								}
							}
						}
					}
				}
				JOINT Shoulder_R
				{
					OFFSET 12.9945 -0.242716 -4.98039
					CHANNELS 6 Xposition Yposition Zposition Zrotation Xrotation Yrotation 
					JOINT UpperArm_R
					{
						OFFSET -5.34813 0.0 0.0
						CHANNELS 6 Xposition Yposition Zposition Zrotation Xrotation Yrotation 
						JOINT LowerArm_R
						{
							OFFSET -24.3289 0.000322201 0.0
							CHANNELS 6 Xposition Yposition Zposition Zrotation Xrotation Yrotation 
							JOINT Hand_R
							{
								OFFSET -22.2915 -0.000108084 0.0
								CHANNELS 6 Xposition Yposition Zposition Zrotation Xrotation Yrotation 
								End Site
								{
									OFFSET 0.0 0.0 0.0
								}
							}
						}
					}
				}
			}
		}
		JOINT UpperLeg_L
		{
			OFFSET -2.19248 -6.46944 0.0
			CHANNELS 6 Xposition Yposition Zposition Zrotation Xrotation Yrotation 
			JOINT LowerLeg_L
			{
				OFFSET 39.0811 0.0 -1.23785e-05
				CHANNELS 6 Xposition Yposition Zposition Zrotation Xrotation Yrotation 
				JOINT Foot_L
				{
					OFFSET 40.9854 0.0 -1.26872e-05
					CHANNELS 6 Xposition Yposition Zposition Zrotation Xrotation Yrotation 
					JOINT Toes_L
					{
						OFFSET 11.7543 0.0 0.0
						CHANNELS 6 Xposition Yposition Zposition Zrotation Xrotation Yrotation 
						End Site
						{
							OFFSET 0.0 0.0 0.0
						}
					}
				}
			}
		}
		JOINT UpperLeg_R
		{
			OFFSET -2.19251 6.46944 0.0
			CHANNELS 6 Xposition Yposition Zposition Zrotation Xrotation Yrotation 
			JOINT LowerLeg_R
			{
				OFFSET -39.0811 -0.00228153 -0.0401928
				CHANNELS 6 Xposition Yposition Zposition Zrotation Xrotation Yrotation 
				JOINT Foot_R
				{
					OFFSET -40.9854 0.0 0.0
					CHANNELS 6 Xposition Yposition Zposition Zrotation Xrotation Yrotation 
					JOINT Toes_R
					{
						OFFSET -11.7543 0.0 0.0
						CHANNELS 6 Xposition Yposition Zposition Zrotation Xrotation Yrotation 
						End Site
						{
							OFFSET 0.0 0.0 0.0
						}
					}
				}
			}
		}
	}
}
MOTION
Frames:	4
Frame Time:	0.0333333
0.000000 0.000000 0.000000 0.000000 0.000000 -0.000000 -1.045520 92.194700 0.667200 87.998700 -1.874850 3.601080 15.735700 0.000005 -0.000001 87.587400 85.491300 -87.176300 8.984550 -0.406207 -0.000000 1.244920 -0.402792 0.825869 16.377300 -0.000001 -0.000001 3.097480 -2.074320 0.168974 6.456720 -0.000001 -0.000000 1.309310 -0.987479 0.773064 12.994200 -0.242716 4.980390 -90.130700 0.424882 -72.906700 5.348090 -0.000007 -0.000001 -67.747900 38.562400 -14.989400 24.328600 0.000019 0.000005 1.803520 4.140090 -23.563700 22.291600 -0.000001 0.000005 2.588610 5.453360 -4.760070 12.994500 -0.242716 -4.980390 87.682000 6.985410 -71.590400 -5.348130 -0.000001 -0.000004 -65.954100 39.201800 -14.580900 -24.328900 0.000322 -0.000009 2.153760 7.118400 -16.890000 -22.291500 -0.000108 -0.000004 9.557900 5.407060 -3.168360 -2.192480 -6.469440 -0.000000 -175.225000 -6.449990 -1.780970 39.081100 -0.000007 -0.000012 -0.123339 0.296262 22.602900 40.985400 -0.000006 -0.000013 -0.738283 2.414790 -67.324100 11.754300 -0.000000 0.000003 -0.000051 -0.000576 -16.599900 -2.192510 6.469440 -0.000001 -179.973000 12.144100 179.970000 -39.081100 -0.002282 -0.040193 -0.013650 0.047192 19.780500 -40.985400 0.000008 0.000006 4.338830 7.062900 -66.789800 -11.754300 -0.000006 -0.000006 -0.007305 -0.082261 -19.922200
0.000000 0.000000 0.000000 0.000000 0.000000 -0.000000 -1.030850 92.192800 0.668606 87.973100 -1.966360 3.608720 15.735700 0.000005 -0.000001 88.029100 85.511400 -87.579800 8.984550 -0.406207 -0.000000 1.207340 -0.334323 0.901379 16.377300 -0.000001 -0.000001 3.053930 -2.036930 0.293763 6.456720 -0.000001 -0.000000 1.288440 -0.897299 0.781234 12.994200 -0.242716 4.980390 -90.268300 0.867341 -72.809900 5.348090 -0.000007 -0.000001 -66.457600 37.666100 -15.687000 24.328600 0.000019 0.000005 2.637170 5.505890 -25.642700 22.291600 -0.000001 0.000005 0.787591 5.449020 -4.604450 12.994500 -0.242716 -4.980390 87.717300 6.882400 -71.600100 -5.348130 -0.000001 -0.000004 -66.143800 38.944000 -14.417300 -24.328900 0.000322 -0.000009 2.167460 7.187920 -16.837100 -22.291500 -0.000108 -0.000004 9.559750 5.407160 -3.171510 -2.192480 -6.469440 -0.000000 -175.221000 -6.427760 -1.770060 39.081100 -0.000007 -0.000012 -0.121325 0.291049 22.629100 40.985400 -0.000006 -0.000013 -0.743574 2.325990 -67.350600 11.754300 -0.000000 0.000003 -0.000054 -0.000606 -16.601100 -2.192510 6.469440 -0.000001 -179.957000 12.121200 179.969000 -39.081100 -0.002282 -0.040193 -0.013559 0.046918 19.788900 -40.985400 0.000008 0.000006 4.377600 7.108260 -66.794300 -11.754300 -0.000006 -0.000006 -0.007463 -0.083595 -19.976600
0.000000 0.000000 0.000000 0.000000 0.000000 -0.000000 -1.026250 92.184800 0.655131 87.980500 -1.895300 3.673050 15.735700 0.000005 -0.000001 88.787600 85.498400 -88.321100 8.984550 -0.406207 -0.000000 1.236220 -0.216982 0.934644 16.377300 -0.000001 -0.000001 2.906230 -2.077700 0.441029 6.456720 -0.000001 -0.000000 1.273710 -0.986461 1.002360 12.994200 -0.242716 4.980390 -90.403200 1.299810 -72.764000 5.348090 -0.000007 -0.000001 -63.931100 35.890200 -17.643900 24.328600 0.000019 0.000005 3.002210 5.324140 -29.475400 22.291600 -0.000001 0.000005 1.154900 5.468710 -5.321790 12.994500 -0.242716 -4.980390 87.784900 6.709480 -71.681900 -5.348130 -0.000001 -0.000004 -66.477600 38.642900 -14.165200 -24.328900 0.000322 -0.000009 2.125560 7.062040 -16.806100 -22.291500 -0.000108 -0.000004 9.461410 5.406150 -3.138360 -2.192480 -6.469440 -0.000000 -175.222000 -6.425860 -1.761050 39.081100 -0.000007 -0.000012 -0.122768 0.293504 22.698900 40.985400 -0.000006 -0.000013 -0.732697 2.354120 -67.368400 11.754300 -0.000000 0.000003 -0.000047 -0.000538 -16.598400 -2.192510 6.469440 -0.000001 179.985000 12.193200 -179.985000 -39.081100 -0.002282 -0.040193 -0.018322 0.060025 19.828300 -40.985400 0.000008 0.000006 4.225530 7.190670 -66.791800 -11.754300 -0.000006 -0.000006 -0.007762 -0.086080 -20.078100
0.000000 0.000000 0.000000 0.000000 0.000000 -0.000000 -1.069720 92.191300 0.597197 88.003000 -1.591570 3.733610 15.735700 0.000005 -0.000001 89.475800 85.501400 -89.027000 8.984550 -0.406207 -0.000000 1.231330 -0.107859 0.897841 16.377300 -0.000001 -0.000001 2.895930 -2.197330 0.626770 6.456720 -0.000001 -0.000000 1.082620 -1.350590 1.471210 12.994200 -0.242716 4.980390 -90.472800 1.516090 -72.679400 5.348090 -0.000007 -0.000001 -60.412100 33.008000 -20.898200 24.328600 0.000019 0.000005 2.923400 4.103110 -35.516800 22.291600 -0.000001 0.000005 3.971290 5.511010 -6.980240 12.994500 -0.242716 -4.980390 87.843300 6.580810 -71.809000 -5.348130 -0.000001 -0.000004 -66.744200 38.709700 -13.898400 -24.328900 0.000322 -0.000009 2.099100 7.033600 -16.671500 -22.291500 -0.000108 -0.000004 9.390530 5.403290 -3.044610 -2.192480 -6.469440 -0.000000 -175.241000 -6.084080 -1.784880 39.081100 -0.000007 -0.000012 -0.122365 0.292687 22.688700 40.985400 -0.000006 -0.000013 -0.758903 2.351300 -67.298700 11.754300 -0.000000 0.000003 -0.000050 -0.000563 -16.599400 -2.192510 6.469440 -0.000001 179.994000 12.360600 -179.932000 -39.081100 -0.002282 -0.040193 -0.016139 0.054005 19.816600 -40.985400 0.000008 0.000006 4.286140 7.028820 -66.781100 -11.754300 -0.000006 -0.000006 -0.007672 -0.085331 -20.047500
